<svg height="26.884682" viewBox="0 0 214.19255 26.884682" width="214.19255" xmlns="http://www.w3.org/2000/svg" xmlns:xlink="http://www.w3.org/1999/xlink">
<g transform="translate(0,0)"/>
<g transform="translate(0,0)"/>
<g transform="translate(0,0)">
<path d="M 6.32 22.71 C 6.02 22.41 5.88 22.05 5.89 21.62 L 5.91 20.45 L 2.91 20.79 C 2.48 20.83 2.10 20.72 1.77 20.45 C 1.44 20.17 1.25 19.81 1.21 19.37 C 1.18 18.96 1.29 18.59 1.55 18.28 C 1.81 17.96 2.16 17.78 2.58 17.74 L 5.94 17.40 L 5.96 15.10 L 5.56 15.10 C 4.94 15.10 4.38 14.95 3.85 14.67 C 3.35 14.37 2.94 13.97 2.64 13.46 C 2.34 12.95 2.20 12.40 2.20 11.80 C 2.20 11.65 2.23 11.41 2.29 11.09 L 2.82 8.71 C 2.40 8.68 2.05 8.52 1.75 8.22 C 1.46 7.92 1.32 7.56 1.32 7.14 L 1.32 7.10 C 1.32 6.66 1.48 6.29 1.79 5.98 C 2.11 5.66 2.48 5.51 2.91 5.51 L 3.54 5.51 L 3.81 4.27 C 3.88 3.93 4.06 3.65 4.32 3.45 C 4.59 3.22 4.90 3.11 5.24 3.11 C 5.66 3.11 6.01 3.26 6.30 3.56 C 6.58 3.86 6.72 4.21 6.72 4.61 C 6.72 4.74 6.71 4.84 6.70 4.90 L 6.59 5.51 L 8.65 5.51 C 9.10 5.51 9.47 5.66 9.77 5.98 C 10.08 6.29 10.24 6.66 10.24 7.10 C 10.24 7.53 10.08 7.90 9.77 8.22 C 9.47 8.52 9.10 8.67 8.65 8.67 L 5.89 8.69 L 5.35 11.22 C 5.31 11.46 5.35 11.66 5.47 11.82 C 5.60 11.99 5.79 12.07 6.03 12.07 L 6.05 10.91 C 6.05 10.52 6.19 10.19 6.47 9.92 C 6.76 9.64 7.09 9.49 7.48 9.49 C 7.89 9.49 8.22 9.64 8.49 9.92 C 8.77 10.20 8.92 10.54 8.92 10.93 L 8.92 12.05 C 9.28 12.11 9.57 12.27 9.79 12.54 C 10.03 12.81 10.16 13.13 10.17 13.50 C 10.17 13.86 10.05 14.18 9.81 14.47 C 9.57 14.74 9.28 14.91 8.94 14.98 L 8.94 17.09 C 9.31 17.13 9.63 17.31 9.88 17.60 C 10.13 17.89 10.26 18.22 10.26 18.61 C 10.26 18.99 10.13 19.31 9.88 19.60 C 9.63 19.88 9.31 20.05 8.94 20.11 L 8.94 21.64 C 8.94 22.06 8.79 22.41 8.49 22.71 C 8.21 23.01 7.86 23.16 7.44 23.16 C 7.00 23.16 6.63 23.01 6.32 22.71 M 10.87 22.76 C 10.51 22.37 10.33 21.91 10.33 21.39 C 10.33 21.14 10.37 20.91 10.44 20.72 L 13.82 11.73 C 13.93 11.44 14.11 11.20 14.36 11.02 C 14.63 10.84 14.92 10.75 15.23 10.75 C 15.67 10.75 16.03 10.90 16.33 11.20 C 16.63 11.50 16.78 11.85 16.78 12.25 C 16.78 12.38 16.76 12.53 16.71 12.70 L 15.86 15.75 L 16.02 15.66 L 16.02 15.66 C 16.27 15.52 16.54 15.45 16.83 15.45 C 17.09 15.45 17.35 15.52 17.59 15.66 C 17.84 15.79 18.04 15.98 18.19 16.22 L 20.61 20.14 C 20.81 20.44 20.90 20.77 20.90 21.14 C 20.90 21.46 20.82 21.76 20.66 22.06 C 20.49 22.36 20.27 22.60 19.98 22.78 C 19.70 22.96 19.38 23.05 19.02 23.05 C 18.66 23.05 18.33 22.96 18.01 22.78 C 17.70 22.59 17.47 22.32 17.32 21.97 L 15.32 17.81 L 15.30 17.74 L 14.11 21.93 C 13.99 22.35 13.76 22.68 13.42 22.94 C 13.08 23.19 12.70 23.32 12.28 23.32 C 11.71 23.32 11.24 23.13 10.87 22.76 M 18.08 12.07 C 17.78 11.70 17.67 11.28 17.74 10.82 L 17.90 9.67 C 17.93 9.43 17.87 9.23 17.72 9.07 C 17.57 8.89 17.38 8.80 17.14 8.80 L 13.76 8.82 L 13.33 11.24 C 13.27 11.65 13.08 11.98 12.77 12.25 C 12.46 12.50 12.10 12.63 11.69 12.63 C 11.20 12.63 10.80 12.47 10.49 12.14 C 10.17 11.79 10.01 11.40 10.01 10.95 C 10.01 10.88 10.03 10.75 10.06 10.57 L 11.45 4.57 C 11.52 4.24 11.69 3.97 11.96 3.76 C 12.23 3.54 12.54 3.42 12.88 3.42 C 13.35 3.42 13.73 3.60 14.02 3.96 C 14.32 4.30 14.44 4.70 14.36 5.15 L 14.29 5.62 L 17.81 5.53 C 18.41 5.53 18.96 5.68 19.47 5.98 C 19.98 6.26 20.38 6.66 20.68 7.16 C 20.98 7.67 21.13 8.23 21.13 8.82 C 21.13 9.00 21.12 9.14 21.10 9.23 L 20.84 11.26 C 20.78 11.67 20.60 12.00 20.30 12.25 C 20.00 12.50 19.66 12.63 19.27 12.63 C 18.79 12.63 18.39 12.44 18.08 12.07 Z" fill="#427ad4"/>
<path d="M 40.91 22.74 C 40.58 22.41 40.42 22.00 40.42 21.53 L 40.42 17.94 L 36.05 18.01 C 35.60 18.01 35.20 17.84 34.86 17.52 C 34.53 17.19 34.37 16.79 34.37 16.33 C 34.37 15.89 34.52 15.52 34.84 15.21 C 35.17 14.88 35.55 14.71 36.00 14.69 L 40.42 14.60 L 40.44 10.61 L 38.02 10.64 L 37.82 11.56 C 37.71 11.93 37.51 12.24 37.21 12.47 C 36.93 12.70 36.60 12.81 36.23 12.81 C 36.17 12.81 36.05 12.80 35.87 12.77 L 35.85 12.77 C 35.47 12.68 35.17 12.49 34.95 12.21 C 34.73 11.91 34.61 11.58 34.61 11.22 C 34.61 11.04 34.63 10.91 34.66 10.82 L 35.78 6.18 C 35.87 5.82 36.06 5.53 36.36 5.31 C 36.66 5.07 36.99 4.95 37.35 4.95 C 37.81 4.95 38.19 5.11 38.49 5.44 C 38.79 5.75 38.94 6.13 38.94 6.56 C 38.94 6.65 38.92 6.77 38.89 6.92 L 38.76 7.46 L 40.44 7.43 L 40.44 5.17 C 40.44 4.71 40.60 4.31 40.93 3.98 C 41.26 3.64 41.66 3.47 42.12 3.47 C 42.58 3.47 42.98 3.63 43.31 3.96 C 43.64 4.29 43.80 4.69 43.80 5.17 L 43.80 7.39 L 45.14 7.37 C 45.61 7.35 46.00 7.51 46.31 7.84 C 46.62 8.15 46.78 8.53 46.78 8.98 C 46.78 9.41 46.62 9.79 46.31 10.10 C 46.00 10.40 45.62 10.55 45.19 10.55 L 43.80 10.55 L 43.80 14.56 L 45.86 14.51 C 46.32 14.51 46.72 14.68 47.05 15.01 C 47.38 15.32 47.54 15.70 47.54 16.15 C 47.54 16.61 47.38 17.01 47.07 17.34 C 46.76 17.65 46.37 17.81 45.91 17.83 L 43.82 17.87 L 43.82 21.53 C 43.82 21.99 43.66 22.38 43.33 22.71 C 43.02 23.03 42.62 23.19 42.14 23.21 L 42.12 23.21 C 41.66 23.22 41.25 23.06 40.91 22.74 M 30.25 22.69 C 29.93 22.36 29.78 21.97 29.80 21.50 L 30.00 13.06 C 29.85 13.25 29.66 13.41 29.42 13.53 C 29.19 13.63 28.95 13.68 28.70 13.68 C 28.33 13.68 27.99 13.56 27.69 13.33 C 27.29 12.98 27.09 12.56 27.09 12.05 C 27.09 11.73 27.18 11.44 27.36 11.17 L 31.63 4.77 C 31.78 4.54 31.98 4.37 32.22 4.25 C 32.46 4.12 32.71 4.05 32.98 4.05 C 33.31 4.05 33.61 4.14 33.87 4.32 L 34.05 4.43 C 34.28 4.58 34.45 4.78 34.57 5.04 C 34.70 5.28 34.77 5.53 34.77 5.80 C 34.77 6.16 34.67 6.46 34.48 6.72 L 31.48 11.00 C 31.51 10.98 31.57 10.97 31.66 10.97 C 32.10 10.97 32.49 11.14 32.80 11.47 C 33.11 11.78 33.27 12.16 33.27 12.61 L 33.25 21.55 C 33.25 22.00 33.08 22.38 32.75 22.71 C 32.43 23.03 32.04 23.18 31.59 23.18 L 31.41 23.18 C 30.96 23.18 30.57 23.02 30.25 22.69 Z" fill="#427ad4"/>
<path d="M 54.24 22.85 C 53.93 22.52 53.77 22.12 53.77 21.66 C 53.77 21.21 53.93 20.83 54.24 20.52 C 54.57 20.19 54.96 20.02 55.43 20.02 L 65.91 20.00 L 66.23 17.94 L 58.92 17.94 C 58.18 17.94 57.54 17.68 57.02 17.16 C 56.51 16.62 56.26 15.98 56.26 15.25 C 56.26 15.15 56.27 14.98 56.30 14.74 L 57.94 6.58 L 55.90 6.58 C 55.46 6.58 55.09 6.43 54.78 6.13 C 54.46 5.82 54.31 5.44 54.31 4.99 C 54.31 4.57 54.46 4.21 54.76 3.92 C 55.07 3.62 55.43 3.47 55.85 3.47 L 72.21 3.29 C 72.66 3.29 73.03 3.45 73.33 3.76 C 73.64 4.07 73.79 4.45 73.78 4.90 L 73.78 5.01 C 73.76 5.43 73.60 5.79 73.31 6.09 C 73.01 6.37 72.65 6.51 72.23 6.51 L 61.95 6.56 L 61.57 8.64 L 68.87 8.64 C 69.62 8.64 70.25 8.90 70.77 9.43 C 71.30 9.95 71.56 10.57 71.56 11.29 C 71.56 11.38 71.54 11.53 71.51 11.73 L 70.17 19.98 L 72.50 19.98 C 72.96 19.98 73.35 20.15 73.66 20.49 C 73.99 20.84 74.15 21.25 74.13 21.73 L 74.13 21.84 C 74.12 22.29 73.95 22.67 73.62 22.98 C 73.31 23.28 72.92 23.43 72.48 23.43 L 55.43 23.34 C 54.96 23.34 54.57 23.18 54.24 22.85 M 67.08 12.23 C 67.08 12.14 67.04 12.06 66.97 11.98 C 66.91 11.91 66.82 11.87 66.72 11.87 L 60.98 11.82 L 60.58 14.11 L 60.58 14.18 C 60.58 14.28 60.61 14.37 60.67 14.45 C 60.74 14.51 60.83 14.54 60.94 14.54 L 66.72 14.58 L 67.08 12.27 L 67.08 12.23 Z" fill="#427ad4"/>
<path d="M 80.63 22.26 C 80.27 21.94 80.09 21.53 80.09 21.05 C 80.09 20.68 80.20 20.35 80.41 20.07 C 80.62 19.79 80.89 19.59 81.24 19.49 L 81.24 7.48 C 81.24 6.75 81.49 6.13 82.00 5.62 C 82.51 5.11 83.13 4.86 83.86 4.86 L 87.26 4.86 C 88.00 4.86 88.61 5.11 89.12 5.62 C 89.63 6.13 89.88 6.75 89.88 7.48 L 89.88 18.97 C 90.17 19.09 90.39 19.29 90.56 19.55 C 90.74 19.82 90.83 20.12 90.83 20.45 C 90.83 20.87 90.68 21.24 90.40 21.57 C 90.12 21.88 89.76 22.06 89.32 22.11 L 81.89 22.71 C 81.41 22.74 80.99 22.59 80.63 22.26 M 86.75 18.97 L 86.75 17.16 L 84.19 17.13 L 84.19 19.20 L 86.75 18.97 M 86.73 14.38 L 86.73 12.36 L 84.17 12.34 L 84.17 14.40 L 86.73 14.38 M 86.75 9.74 L 86.75 8.80 C 86.75 8.55 86.66 8.34 86.48 8.17 C 86.31 7.99 86.11 7.90 85.85 7.90 L 85.09 7.90 C 84.84 7.90 84.62 7.99 84.44 8.17 C 84.28 8.34 84.19 8.55 84.19 8.80 L 84.19 9.76 L 86.75 9.74 M 91.32 22.98 C 91.00 22.62 90.89 22.21 90.96 21.75 L 92.39 9.99 C 91.98 9.96 91.62 9.78 91.32 9.45 C 91.03 9.12 90.90 8.74 90.92 8.31 C 90.92 7.86 91.07 7.48 91.39 7.16 C 91.71 6.85 92.10 6.69 92.55 6.69 L 92.82 6.69 L 93.07 4.74 C 93.13 4.36 93.30 4.03 93.60 3.76 C 93.90 3.49 94.24 3.36 94.61 3.36 C 95.10 3.36 95.51 3.54 95.82 3.89 C 96.14 4.25 96.27 4.67 96.22 5.15 L 96.02 6.72 L 97.28 6.72 C 97.80 6.72 98.28 6.85 98.71 7.12 C 99.16 7.37 99.51 7.72 99.76 8.17 C 100.03 8.61 100.17 9.08 100.17 9.61 L 100.19 20.56 C 100.19 21.07 100.06 21.55 99.81 22.00 C 99.56 22.44 99.20 22.80 98.76 23.07 C 98.32 23.33 97.85 23.45 97.34 23.45 L 96.67 23.47 C 96.25 23.49 95.89 23.35 95.58 23.05 C 95.28 22.74 95.13 22.36 95.13 21.93 C 95.13 21.51 95.28 21.15 95.58 20.85 C 95.87 20.55 96.23 20.41 96.65 20.41 C 96.81 20.39 96.96 20.29 97.08 20.11 C 97.20 19.93 97.26 19.73 97.26 19.49 L 97.30 10.77 C 97.30 10.53 97.21 10.32 97.03 10.14 C 96.85 9.97 96.64 9.88 96.40 9.90 L 95.62 9.92 L 94.14 22.11 C 94.10 22.51 93.92 22.85 93.60 23.12 C 93.30 23.39 92.95 23.52 92.55 23.52 C 92.06 23.52 91.65 23.34 91.32 22.98 Z" fill="#427ad4"/>
<path d="M 117.71 14.40 C 117.71 14.28 117.66 14.18 117.55 14.11 C 117.46 14.04 117.34 14.00 117.17 14.00 L 112.13 14.04 C 111.70 14.04 111.32 13.89 111.01 13.59 C 110.71 13.30 110.56 12.93 110.56 12.50 L 110.56 12.50 C 110.56 12.06 110.71 11.70 111.01 11.40 C 111.31 11.09 111.68 10.93 112.11 10.93 L 119.88 10.84 C 120.54 10.82 121.09 11.06 121.54 11.53 C 121.99 12.00 122.21 12.54 122.21 13.17 C 122.21 13.57 122.12 13.95 121.92 14.29 L 121.23 15.48 L 124.61 15.45 C 125.06 15.45 125.44 15.61 125.75 15.92 C 126.07 16.22 126.22 16.60 126.22 17.04 C 126.24 17.51 126.08 17.90 125.75 18.23 C 125.44 18.55 125.06 18.70 124.61 18.70 L 120.42 18.70 L 120.42 19.85 C 120.42 20.47 120.26 21.05 119.95 21.59 C 119.64 22.12 119.21 22.54 118.67 22.87 C 118.15 23.18 117.58 23.34 116.95 23.34 L 113.95 23.36 C 113.53 23.36 113.17 23.21 112.87 22.91 C 112.57 22.62 112.42 22.26 112.42 21.84 L 112.42 21.79 C 112.42 21.39 112.56 21.05 112.85 20.76 C 113.15 20.47 113.50 20.32 113.90 20.32 L 115.87 20.32 C 116.13 20.32 116.34 20.23 116.50 20.05 C 116.68 19.87 116.77 19.66 116.77 19.42 L 116.77 18.72 L 108.35 18.75 C 107.91 18.75 107.54 18.60 107.23 18.30 C 106.93 17.99 106.78 17.61 106.78 17.18 C 106.79 16.76 106.95 16.40 107.25 16.10 C 107.55 15.81 107.90 15.66 108.32 15.66 L 117.11 15.57 L 117.26 15.25 L 117.60 14.76 C 117.67 14.61 117.71 14.49 117.71 14.40 M 124.83 6.94 C 125.34 7.22 125.74 7.62 126.02 8.13 C 126.32 8.62 126.47 9.16 126.47 9.74 L 126.47 10.37 C 126.47 10.86 126.29 11.29 125.93 11.65 C 125.59 11.99 125.17 12.16 124.68 12.16 L 124.68 12.16 C 124.18 12.16 123.76 11.99 123.40 11.65 C 123.06 11.29 122.89 10.86 122.89 10.37 C 122.89 10.16 122.81 9.99 122.66 9.85 C 122.53 9.70 122.36 9.63 122.15 9.63 L 110.81 9.70 C 110.63 9.70 110.47 9.76 110.34 9.90 C 110.22 10.02 110.16 10.17 110.16 10.37 C 110.16 10.86 109.98 11.29 109.62 11.65 C 109.28 11.99 108.86 12.16 108.37 12.16 L 108.35 12.16 C 107.85 12.16 107.43 11.99 107.07 11.65 C 106.72 11.29 106.55 10.86 106.55 10.37 L 106.55 9.90 C 106.55 9.08 106.82 8.36 107.36 7.75 C 107.91 7.13 108.59 6.79 109.40 6.72 C 109.29 6.63 109.20 6.51 109.13 6.38 L 108.93 6.00 C 108.79 5.75 108.73 5.48 108.73 5.22 C 108.73 4.90 108.81 4.61 108.97 4.34 C 109.15 4.06 109.39 3.84 109.69 3.69 C 109.91 3.60 110.14 3.56 110.36 3.56 C 110.68 3.56 110.96 3.64 111.21 3.80 C 111.48 3.97 111.69 4.20 111.84 4.50 L 112.02 4.88 C 112.12 5.07 112.18 5.29 112.18 5.53 C 112.18 5.93 112.03 6.31 111.73 6.65 L 115.56 6.60 C 115.22 6.46 114.95 6.22 114.78 5.89 L 114.51 5.35 C 114.37 5.10 114.30 4.84 114.30 4.59 C 114.30 4.27 114.39 3.98 114.57 3.71 C 114.75 3.43 114.99 3.23 115.29 3.11 L 115.29 3.11 C 115.50 3.02 115.72 2.98 115.94 2.98 C 116.25 2.98 116.55 3.06 116.81 3.24 C 117.10 3.41 117.31 3.64 117.44 3.94 L 117.67 4.48 C 117.75 4.67 117.80 4.89 117.80 5.13 C 117.80 5.42 117.72 5.71 117.55 5.98 C 117.40 6.23 117.19 6.43 116.90 6.56 L 116.84 6.60 L 120.53 6.54 C 120.28 6.24 120.15 5.90 120.15 5.51 C 120.15 5.16 120.23 4.87 120.40 4.63 L 120.78 4.01 C 120.93 3.77 121.13 3.59 121.38 3.47 C 121.64 3.33 121.90 3.27 122.17 3.27 C 122.47 3.27 122.74 3.34 123.00 3.49 L 123.00 3.49 C 123.25 3.64 123.45 3.84 123.58 4.10 C 123.71 4.35 123.78 4.62 123.78 4.90 C 123.78 5.26 123.67 5.59 123.45 5.89 L 123.02 6.45 L 122.98 6.51 L 123.22 6.51 C 123.80 6.51 124.34 6.66 124.83 6.94 Z" fill="#427ad4"/>
<path d="M 143.09 23.41 C 142.72 23.02 142.53 22.56 142.53 22.02 C 142.53 21.47 142.73 21.00 143.12 20.63 C 143.50 20.24 143.97 20.05 144.53 20.05 L 148.13 20.14 C 148.28 20.14 148.41 20.08 148.52 19.98 C 148.63 19.88 148.69 19.75 148.69 19.60 L 148.85 7.30 C 148.85 7.15 148.80 7.02 148.69 6.92 C 148.59 6.81 148.46 6.76 148.31 6.76 L 135.70 6.76 C 135.18 6.76 134.73 6.57 134.36 6.20 C 134.00 5.83 133.82 5.38 133.82 4.86 C 133.82 4.33 134.01 3.89 134.38 3.51 C 134.75 3.14 135.20 2.95 135.72 2.95 L 149.70 2.95 C 150.29 2.95 150.82 3.10 151.32 3.40 C 151.82 3.68 152.22 4.08 152.50 4.59 C 152.79 5.08 152.93 5.62 152.93 6.20 L 152.84 20.81 C 152.84 21.39 152.69 21.93 152.39 22.42 C 152.09 22.91 151.70 23.30 151.20 23.59 C 150.71 23.87 150.17 24.01 149.59 24.01 L 144.48 23.97 C 143.95 23.97 143.48 23.78 143.09 23.41 M 136.08 21.39 C 135.72 21.39 135.39 21.29 135.07 21.10 C 134.76 20.91 134.52 20.64 134.36 20.29 L 134.18 19.87 C 134.06 19.58 134.00 19.31 134.00 19.06 C 134.00 18.69 134.10 18.34 134.31 18.03 C 134.52 17.72 134.80 17.49 135.16 17.34 L 144.24 13.64 C 144.46 13.55 144.70 13.50 144.95 13.50 C 145.31 13.50 145.65 13.60 145.96 13.80 C 146.28 13.99 146.51 14.25 146.66 14.58 C 146.78 14.82 146.84 15.09 146.84 15.39 C 146.84 15.75 146.74 16.09 146.54 16.42 C 146.35 16.73 146.08 16.96 145.74 17.11 L 136.87 21.21 C 136.60 21.33 136.34 21.39 136.08 21.39 M 136.84 10.75 C 136.63 10.45 136.53 10.12 136.53 9.76 C 136.53 9.55 136.57 9.34 136.66 9.11 L 136.73 8.96 C 136.87 8.63 137.07 8.37 137.36 8.20 C 137.64 8.00 137.96 7.90 138.30 7.90 C 138.49 7.90 138.70 7.94 138.93 8.02 L 142.60 9.45 C 142.94 9.58 143.21 9.80 143.41 10.10 C 143.60 10.38 143.70 10.70 143.70 11.04 C 143.70 11.31 143.63 11.57 143.50 11.82 C 143.35 12.11 143.13 12.33 142.85 12.50 C 142.58 12.65 142.29 12.72 142.00 12.72 C 141.79 12.72 141.60 12.69 141.44 12.63 L 137.67 11.38 C 137.33 11.26 137.05 11.05 136.84 10.75 Z" fill="#427ad4"/>
<path d="M 164.33 22.82 C 163.97 22.45 163.79 22.00 163.79 21.48 C 163.79 20.96 163.97 20.52 164.33 20.16 C 164.71 19.79 165.15 19.60 165.68 19.60 L 166.55 19.60 C 166.80 19.60 167.01 19.52 167.18 19.35 C 167.36 19.17 167.45 18.96 167.45 18.70 L 167.45 5.39 C 167.45 4.84 167.64 4.37 168.03 3.98 C 168.43 3.58 168.91 3.38 169.46 3.38 C 170.02 3.38 170.49 3.58 170.87 3.98 C 171.28 4.37 171.48 4.85 171.48 5.42 L 171.39 19.46 C 171.39 20.17 171.21 20.82 170.85 21.41 C 170.51 22.01 170.04 22.49 169.44 22.85 C 168.84 23.19 168.19 23.36 167.49 23.36 L 165.65 23.36 C 165.13 23.36 164.69 23.18 164.33 22.82 M 159.74 17.63 C 159.55 17.30 159.45 16.96 159.45 16.60 C 159.45 16.31 159.50 16.06 159.61 15.83 L 162.03 9.92 C 162.17 9.58 162.40 9.31 162.70 9.11 C 163.00 8.90 163.32 8.80 163.66 8.80 C 163.78 8.80 163.96 8.83 164.20 8.89 C 164.57 9.01 164.87 9.23 165.09 9.56 C 165.32 9.88 165.43 10.22 165.43 10.59 C 165.43 10.80 165.40 11.00 165.34 11.17 L 163.21 17.20 C 163.06 17.60 162.82 17.93 162.47 18.16 C 162.14 18.39 161.78 18.50 161.38 18.50 C 161.11 18.50 160.85 18.45 160.59 18.34 C 160.23 18.18 159.95 17.94 159.74 17.63 M 177.06 18.50 C 176.65 18.50 176.28 18.39 175.94 18.16 C 175.61 17.93 175.37 17.60 175.22 17.20 L 173.09 11.17 C 173.03 11.00 173.00 10.80 173.00 10.59 C 173.00 10.11 173.17 9.70 173.50 9.34 C 173.82 8.98 174.24 8.80 174.75 8.80 C 175.11 8.80 175.44 8.90 175.74 9.11 C 176.03 9.31 176.26 9.58 176.41 9.92 L 178.85 15.83 C 178.94 16.06 178.98 16.30 178.98 16.55 C 178.98 16.93 178.88 17.28 178.67 17.60 C 178.48 17.93 178.20 18.18 177.84 18.34 C 177.62 18.45 177.36 18.50 177.06 18.50 Z" fill="#427ad4"/>
<path d="M 196.62 22.89 C 196.06 22.56 195.62 22.13 195.29 21.59 C 194.97 21.04 194.80 20.44 194.80 19.78 L 194.73 16.06 C 194.72 15.16 194.99 14.38 195.54 13.71 C 196.11 13.02 196.82 12.59 197.67 12.43 L 197.65 4.72 C 197.65 4.21 197.83 3.78 198.18 3.42 C 198.54 3.05 198.97 2.86 199.46 2.86 C 199.98 2.86 200.43 3.04 200.78 3.40 C 201.14 3.76 201.32 4.19 201.32 4.70 L 201.32 5.95 L 204.01 5.89 C 204.50 5.89 204.92 6.05 205.26 6.38 C 205.61 6.71 205.78 7.12 205.78 7.61 C 205.78 8.11 205.61 8.53 205.26 8.89 C 204.94 9.23 204.53 9.40 204.03 9.40 L 201.32 9.40 L 201.34 12.32 L 201.43 12.32 C 202.11 12.32 202.72 12.48 203.27 12.81 C 203.84 13.12 204.29 13.56 204.61 14.13 C 204.94 14.70 205.11 15.31 205.11 15.97 L 205.11 19.71 C 205.11 20.38 204.94 21.00 204.61 21.57 C 204.30 22.12 203.86 22.56 203.29 22.89 C 202.74 23.21 202.13 23.36 201.46 23.36 L 198.45 23.36 C 197.80 23.36 197.18 23.21 196.62 22.89 M 186.96 22.20 C 186.51 22.20 186.13 22.05 185.82 21.75 C 185.52 21.44 185.37 21.05 185.37 20.58 C 185.37 20.21 185.49 19.88 185.73 19.58 C 185.97 19.28 186.27 19.09 186.65 19.02 L 189.96 18.34 C 189.83 18.16 189.76 17.95 189.76 17.69 C 189.76 17.60 189.78 17.50 189.81 17.38 L 191.22 11.65 C 191.29 11.33 191.45 11.09 191.69 10.91 C 191.94 10.71 192.22 10.61 192.52 10.61 C 192.92 10.61 193.24 10.75 193.48 11.02 C 193.73 11.29 193.86 11.60 193.86 11.96 C 193.86 12.06 193.85 12.19 193.82 12.34 L 192.29 17.85 L 192.54 17.81 C 192.61 17.79 192.73 17.78 192.88 17.78 C 193.32 17.78 193.71 17.94 194.04 18.25 C 194.38 18.57 194.56 18.96 194.56 19.44 C 194.56 19.83 194.43 20.18 194.17 20.49 C 193.92 20.81 193.59 21.00 193.19 21.08 L 187.25 22.18 C 187.19 22.19 187.09 22.20 186.96 22.20 M 187.54 16.57 C 187.30 16.39 187.15 16.16 187.07 15.88 L 186.13 12.61 C 186.10 12.53 186.09 12.41 186.09 12.25 C 186.09 11.89 186.21 11.59 186.45 11.33 C 186.70 11.06 187.02 10.93 187.41 10.93 C 187.71 10.93 187.98 11.02 188.22 11.20 C 188.45 11.38 188.61 11.61 188.69 11.89 L 189.60 15.14 C 189.65 15.27 189.67 15.40 189.67 15.52 C 189.67 15.88 189.54 16.19 189.29 16.46 C 189.04 16.72 188.72 16.84 188.33 16.84 C 188.04 16.84 187.78 16.75 187.54 16.57 M 201.46 19.64 C 201.64 19.46 201.72 19.25 201.72 18.99 L 201.70 16.73 C 201.70 16.48 201.61 16.27 201.43 16.10 C 201.27 15.92 201.06 15.84 200.81 15.86 L 199.13 15.90 C 198.89 15.92 198.68 16.01 198.50 16.19 C 198.32 16.36 198.22 16.57 198.21 16.82 L 198.18 18.99 C 198.17 19.23 198.24 19.44 198.41 19.62 C 198.59 19.80 198.80 19.89 199.06 19.89 L 200.83 19.89 C 201.08 19.89 201.29 19.81 201.46 19.64 M 185.86 8.69 C 185.55 8.36 185.39 7.96 185.39 7.50 C 185.39 7.07 185.55 6.69 185.86 6.38 C 186.18 6.05 186.55 5.89 186.98 5.89 L 188.28 5.84 L 188.13 5.26 C 188.10 5.08 188.08 4.95 188.08 4.86 C 188.08 4.44 188.22 4.07 188.51 3.76 C 188.81 3.45 189.17 3.29 189.60 3.29 C 189.99 3.29 190.34 3.41 190.63 3.65 C 190.93 3.89 191.11 4.19 191.17 4.57 L 191.40 5.78 L 192.47 5.73 C 192.95 5.72 193.36 5.87 193.70 6.20 C 194.05 6.53 194.22 6.93 194.22 7.41 C 194.22 7.89 194.06 8.29 193.73 8.62 C 193.40 8.95 193.00 9.11 192.54 9.11 L 187.03 9.16 C 186.56 9.16 186.18 9.00 185.86 8.69 Z" fill="#427ad4"/>
</g>
</svg>