<svg height="54.616653" viewBox="0 0 256.37552 54.616653" width="256.37552" xmlns="http://www.w3.org/2000/svg" xmlns:xlink="http://www.w3.org/1999/xlink">
<g transform="translate(0,0)"/>
<g transform="translate(0,0)"/>
<g transform="translate(0,0)">
<path d="M 8.69 44.05 C 6.84 43.50 5.13 42.76 3.55 41.82 C 2.94 41.45 2.46 40.97 2.09 40.36 C 1.76 39.72 1.59 39.06 1.59 38.36 C 1.59 37.60 1.79 36.89 2.18 36.22 C 2.58 35.64 3.06 35.20 3.64 34.90 C 4.25 34.57 4.89 34.40 5.55 34.40 C 6.16 34.40 6.80 34.57 7.46 34.90 C 10.07 36.23 12.23 36.90 13.93 36.90 C 15.26 36.90 16.32 36.61 17.11 36.04 C 17.90 35.46 18.30 34.75 18.30 33.90 C 18.30 33.38 18.13 32.87 17.80 32.35 C 17.46 31.80 16.96 31.32 16.29 30.89 C 15.75 30.53 15.16 30.24 14.52 30.03 C 13.88 29.82 13.03 29.57 11.97 29.30 C 10.30 28.85 8.91 28.39 7.78 27.94 C 6.66 27.48 5.51 26.78 4.32 25.84 C 3.35 25.08 2.61 24.13 2.09 22.98 C 1.61 21.82 1.37 20.62 1.37 19.38 C 1.37 18.07 1.62 16.86 2.14 15.74 C 3.02 13.77 4.58 12.23 6.83 11.14 C 9.07 10.05 11.65 9.50 14.56 9.50 C 16.20 9.50 17.70 9.67 19.07 10.00 C 20.44 10.31 21.71 10.84 22.89 11.60 C 23.41 11.90 23.80 12.32 24.08 12.87 C 24.35 13.39 24.49 13.93 24.49 14.51 C 24.49 15.24 24.26 15.92 23.80 16.56 C 23.47 17.01 23.06 17.36 22.57 17.60 C 22.09 17.82 21.57 17.92 21.03 17.92 C 20.42 17.92 19.84 17.79 19.30 17.51 C 17.81 16.66 16.22 16.24 14.52 16.24 C 14.09 16.24 13.78 16.25 13.56 16.28 C 12.59 16.38 11.80 16.69 11.20 17.24 C 10.62 17.79 10.33 18.44 10.33 19.20 C 10.33 19.86 10.57 20.49 11.06 21.06 C 11.64 21.79 12.29 22.29 13.02 22.57 C 13.78 22.84 14.82 23.10 16.16 23.34 C 17.25 23.52 18.21 23.73 19.02 23.98 C 19.87 24.19 20.75 24.52 21.66 24.98 C 23.49 25.92 24.87 27.27 25.81 29.03 C 26.78 30.79 27.26 32.62 27.26 34.54 C 27.26 35.63 27.14 36.55 26.90 37.31 C 26.50 38.74 25.75 40.03 24.62 41.18 C 23.50 42.30 22.12 43.20 20.48 43.87 C 18.84 44.50 17.11 44.82 15.29 44.82 C 12.74 44.82 10.54 44.56 8.69 44.05 Z" fill="#427ad4"/>
<path d="M 35.14 42.77 C 33.50 41.50 32.22 39.82 31.31 37.72 C 30.43 35.63 29.99 33.34 29.99 30.85 C 29.99 28.39 30.43 26.15 31.31 24.11 C 32.22 22.08 33.48 20.43 35.09 19.15 C 36.73 17.88 38.61 17.12 40.73 16.88 C 41.37 16.82 42.45 16.79 43.97 16.79 C 46.21 16.79 48.21 17.41 49.97 18.65 C 51.76 19.90 53.15 21.59 54.12 23.75 C 55.12 25.87 55.62 28.24 55.62 30.85 C 55.62 33.55 55.15 35.92 54.21 37.95 C 53.30 39.98 51.95 41.59 50.16 42.77 C 49.25 43.41 48.20 43.91 47.02 44.28 C 45.83 44.64 44.24 44.82 42.24 44.82 C 41.57 44.82 41.05 44.81 40.69 44.78 C 38.63 44.69 36.78 44.02 35.14 42.77 M 42.87 36.81 C 44.54 36.81 45.86 36.20 46.83 34.99 C 47.80 33.78 48.29 32.37 48.29 30.76 C 48.29 28.91 47.79 27.44 46.79 26.34 C 45.82 25.22 44.59 24.66 43.10 24.66 C 41.89 24.66 40.86 24.96 40.01 25.57 C 39.16 26.18 38.50 26.95 38.05 27.89 C 37.62 28.83 37.40 29.80 37.37 30.80 C 37.37 32.29 37.72 33.56 38.41 34.63 C 39.14 35.69 40.04 36.34 41.10 36.58 C 41.80 36.74 42.39 36.81 42.87 36.81 Z" fill="#427ad4"/>
<path d="M 64.13 43.37 C 63.22 42.42 62.76 41.30 62.76 40.00 L 62.85 27.98 L 62.40 27.98 C 61.31 27.98 60.37 27.62 59.58 26.89 C 58.79 26.13 58.38 25.21 58.35 24.11 L 58.35 24.02 C 58.29 22.90 58.65 21.93 59.44 21.11 C 60.23 20.29 61.20 19.88 62.35 19.88 L 62.90 19.88 C 62.93 19.21 62.95 18.30 62.95 17.15 C 62.95 14.11 63.70 11.69 65.22 9.87 C 66.77 8.05 69.39 6.89 73.10 6.41 C 74.34 6.26 75.43 6.61 76.37 7.45 C 77.34 8.30 77.83 9.35 77.83 10.60 C 77.83 11.57 77.54 12.43 76.96 13.19 C 76.42 13.95 75.67 14.45 74.73 14.69 C 73.64 14.96 72.79 15.50 72.19 16.28 C 71.58 17.07 71.29 18.06 71.32 19.24 L 71.32 19.93 L 73.91 19.93 C 75.04 19.93 75.98 20.32 76.74 21.11 C 77.53 21.87 77.92 22.79 77.92 23.89 C 77.92 25.01 77.53 25.96 76.74 26.75 C 75.98 27.54 75.04 27.92 73.91 27.89 L 71.59 27.89 L 72.19 39.82 C 72.25 41.15 71.81 42.30 70.87 43.27 C 69.95 44.25 68.83 44.73 67.50 44.73 C 66.19 44.73 65.07 44.28 64.13 43.37 Z" fill="#427ad4"/>
<path d="M 88.39 41.82 C 86.72 39.78 85.87 37.18 85.84 33.99 C 85.84 30.23 85.82 27.19 85.79 24.89 L 84.70 24.89 C 83.61 24.92 82.67 24.57 81.88 23.84 C 81.12 23.08 80.71 22.16 80.65 21.06 L 80.65 20.93 C 80.59 19.80 80.95 18.83 81.74 18.01 C 82.56 17.19 83.53 16.79 84.66 16.79 L 85.70 16.79 L 85.70 13.96 C 85.70 12.72 86.14 11.67 87.02 10.82 C 87.90 9.94 88.95 9.50 90.16 9.50 C 91.38 9.50 92.41 9.94 93.26 10.82 C 94.14 11.70 94.58 12.76 94.58 14.01 C 94.58 15.19 94.56 16.12 94.53 16.79 L 97.76 16.79 C 98.89 16.79 99.83 17.18 100.59 17.97 C 101.37 18.73 101.77 19.65 101.77 20.74 C 101.77 21.87 101.37 22.82 100.59 23.61 C 99.80 24.40 98.86 24.80 97.76 24.80 L 94.35 24.84 C 94.26 27.66 94.21 30.08 94.21 32.08 C 94.21 34.32 95.35 35.69 97.63 36.17 C 98.54 36.36 99.30 36.78 99.90 37.45 C 100.54 38.09 100.92 38.86 101.04 39.77 L 101.09 40.00 C 101.21 41.30 100.84 42.44 99.99 43.41 C 99.14 44.35 98.05 44.82 96.72 44.82 C 92.86 44.82 90.09 43.82 88.39 41.82 Z" fill="#427ad4"/>
<path d="M 105.73 43.64 C 104.94 42.85 104.55 41.89 104.55 40.77 L 104.50 13.87 C 104.50 12.66 104.92 11.63 105.77 10.78 C 106.62 9.93 107.66 9.50 108.87 9.50 C 110.08 9.50 111.10 9.94 111.92 10.82 C 112.77 11.67 113.18 12.70 113.15 13.92 L 112.97 22.38 L 124.39 22.43 L 124.21 13.92 C 124.18 12.70 124.59 11.66 125.44 10.78 C 126.32 9.90 127.36 9.46 128.58 9.46 L 128.67 9.46 C 129.88 9.46 130.91 9.88 131.76 10.73 C 132.61 11.58 133.04 12.61 133.04 13.83 L 132.90 40.73 C 132.90 41.85 132.51 42.80 131.72 43.59 C 130.93 44.38 129.99 44.78 128.90 44.78 C 127.80 44.78 126.86 44.40 126.07 43.64 C 125.28 42.88 124.87 41.94 124.84 40.82 L 124.62 30.48 L 112.87 30.67 L 112.65 40.86 C 112.62 41.98 112.21 42.93 111.42 43.68 C 110.66 44.44 109.72 44.82 108.60 44.82 C 107.47 44.82 106.52 44.43 105.73 43.64 Z" fill="#427ad4"/>
<path d="M 140.14 43.37 C 138.71 42.36 137.62 41.01 136.86 39.31 C 136.13 37.62 135.77 35.72 135.77 33.63 L 135.77 20.79 C 135.77 19.67 136.15 18.73 136.91 17.97 C 137.69 17.18 138.65 16.79 139.77 16.79 C 140.87 16.79 141.81 17.18 142.59 17.97 C 143.38 18.73 143.78 19.67 143.78 20.79 L 143.78 33.31 C 143.78 34.19 144.04 34.84 144.55 35.26 C 145.10 35.66 145.83 35.86 146.74 35.86 C 147.65 35.86 148.66 35.69 149.79 35.35 C 150.91 34.99 151.96 34.54 152.93 33.99 L 152.74 20.84 C 152.71 19.71 153.09 18.76 153.88 17.97 C 154.67 17.18 155.63 16.79 156.75 16.79 L 157.39 16.79 C 158.51 16.79 159.47 17.18 160.25 17.97 C 161.04 18.76 161.42 19.71 161.39 20.84 L 161.12 40.82 C 161.12 41.94 160.72 42.89 159.94 43.68 C 159.15 44.44 158.19 44.82 157.07 44.82 C 156.16 44.82 155.34 44.56 154.61 44.05 C 153.91 43.50 153.44 42.80 153.20 41.95 C 151.77 42.80 150.35 43.50 148.92 44.05 C 147.53 44.56 146.31 44.82 145.28 44.82 C 143.28 44.82 141.56 44.34 140.14 43.37 Z" fill="#427ad4"/>
<path d="M 165.26 43.68 C 164.50 42.93 164.12 42.00 164.12 40.91 L 164.12 10.50 C 164.12 9.32 164.53 8.32 165.35 7.50 C 166.20 6.65 167.22 6.23 168.40 6.23 C 169.62 6.23 170.65 6.67 171.50 7.55 C 172.35 8.40 172.76 9.43 172.73 10.64 L 172.50 18.70 C 173.38 18.12 174.38 17.67 175.50 17.33 C 176.62 16.97 177.78 16.79 178.96 16.79 C 181.05 16.79 182.98 17.38 184.74 18.56 C 186.50 19.71 187.85 21.55 188.79 24.07 C 189.16 24.95 189.43 26.02 189.61 27.30 C 189.82 28.54 189.93 29.85 189.93 31.21 C 189.93 34.49 189.23 37.40 187.84 39.95 C 186.44 42.47 184.16 44.05 181.01 44.69 C 180.28 44.81 179.72 44.87 179.32 44.87 C 178.05 44.87 176.75 44.62 175.41 44.14 C 174.11 43.62 172.86 42.91 171.68 42.00 C 171.47 42.82 171.01 43.50 170.31 44.05 C 169.65 44.56 168.87 44.82 167.99 44.82 C 166.93 44.82 166.02 44.44 165.26 43.68 M 182.19 34.81 C 182.62 33.75 182.83 32.62 182.83 31.44 C 182.83 30.20 182.60 29.09 182.15 28.12 C 181.69 27.12 180.99 26.43 180.05 26.07 C 179.45 25.83 178.76 25.71 178.00 25.71 C 176.97 25.71 175.94 25.92 174.91 26.34 C 173.91 26.77 173.01 27.25 172.22 27.80 L 172.09 33.35 C 173.03 34.44 174.12 35.40 175.36 36.22 C 176.64 37.04 177.81 37.45 178.87 37.45 C 179.54 37.45 180.08 37.31 180.51 37.04 C 181.21 36.58 181.77 35.84 182.19 34.81 Z" fill="#427ad4"/>
<path d="M 193.62 44.37 C 193.01 43.76 192.69 43.03 192.66 42.18 L 192.66 42.05 C 192.63 41.17 192.92 40.41 193.53 39.77 C 194.16 39.10 194.91 38.77 195.76 38.77 C 196.70 38.77 197.48 39.10 198.12 39.77 C 198.76 40.41 199.05 41.17 198.99 42.05 L 198.99 42.18 C 198.96 43.03 198.64 43.76 198.03 44.37 C 197.42 44.94 196.70 45.25 195.85 45.28 C 195.00 45.28 194.25 44.97 193.62 44.37 Z" fill="#427ad4"/>
<path d="M 204.86 41.18 C 202.76 38.72 201.72 35.17 201.72 30.53 C 201.72 27.59 202.22 25.10 203.22 23.07 C 204.22 21.00 205.62 19.44 207.41 18.38 C 209.20 17.32 211.29 16.79 213.69 16.79 C 215.02 16.79 216.46 17.00 218.01 17.42 C 219.56 17.82 221.00 18.42 222.34 19.24 C 222.85 19.55 223.25 19.97 223.52 20.52 C 223.82 21.03 223.97 21.59 223.97 22.20 C 223.97 23.02 223.72 23.73 223.20 24.34 L 223.06 24.52 C 222.37 25.37 221.47 25.80 220.38 25.80 C 219.83 25.80 219.30 25.66 218.79 25.39 C 217.69 24.81 216.57 24.52 215.42 24.52 C 213.96 24.52 212.75 25.08 211.78 26.21 C 210.84 27.33 210.33 29.09 210.27 31.49 C 210.24 33.25 210.67 34.61 211.55 35.58 C 212.43 36.52 213.54 36.99 214.87 36.99 C 216.24 36.99 217.54 36.51 218.79 35.54 C 219.48 34.99 220.26 34.72 221.11 34.72 C 221.80 34.72 222.44 34.90 223.02 35.26 C 223.59 35.63 224.03 36.10 224.34 36.67 C 224.67 37.22 224.84 37.81 224.84 38.45 C 224.84 39.00 224.72 39.53 224.47 40.04 C 224.23 40.53 223.88 40.95 223.43 41.32 C 222.09 42.38 220.58 43.23 218.88 43.87 C 217.18 44.50 215.58 44.82 214.10 44.82 C 210.06 44.82 206.98 43.61 204.86 41.18 Z" fill="#427ad4"/>
<path d="M 230.71 41.18 C 228.62 38.72 227.57 35.17 227.57 30.53 C 227.57 27.59 228.07 25.10 229.07 23.07 C 230.07 21.00 231.47 19.44 233.26 18.38 C 235.05 17.32 237.14 16.79 239.54 16.79 C 240.87 16.79 242.32 17.00 243.86 17.42 C 245.41 17.82 246.85 18.42 248.19 19.24 C 248.70 19.55 249.10 19.97 249.37 20.52 C 249.67 21.03 249.83 21.59 249.83 22.20 C 249.83 23.02 249.57 23.73 249.05 24.34 L 248.92 24.52 C 248.22 25.37 247.32 25.80 246.23 25.80 C 245.68 25.80 245.15 25.66 244.64 25.39 C 243.54 24.81 242.42 24.52 241.27 24.52 C 239.81 24.52 238.60 25.08 237.63 26.21 C 236.69 27.33 236.19 29.09 236.13 31.49 C 236.10 33.25 236.52 34.61 237.40 35.58 C 238.28 36.52 239.39 36.99 240.72 36.99 C 242.09 36.99 243.39 36.51 244.64 35.54 C 245.33 34.99 246.11 34.72 246.96 34.72 C 247.66 34.72 248.29 34.90 248.87 35.26 C 249.45 35.63 249.89 36.10 250.19 36.67 C 250.52 37.22 250.69 37.81 250.69 38.45 C 250.69 39.00 250.57 39.53 250.33 40.04 C 250.08 40.53 249.73 40.95 249.28 41.32 C 247.94 42.38 246.43 43.23 244.73 43.87 C 243.03 44.50 241.44 44.82 239.95 44.82 C 235.91 44.82 232.83 43.61 230.71 41.18 Z" fill="#427ad4"/>
</g>
</svg>